<svg data-v-423bf9ae="" xmlns="http://www.w3.org/2000/svg" viewBox="0 0 358 112" class="iconLeft"><!----><!----><!----><g data-v-423bf9ae="" id="fa2db2a2-4f64-41d9-8d1a-9704c93d52a1" fill="black" transform="matrix(5.639097690582275,0,0,5.639097690582275,120.75589752197266,5.819827556610107)"><path d="M3.95 6.58C2.23 6.58 1.01 7.56 0.91 9.02L1.90 9.02C1.96 8.18 2.76 7.49 3.91 7.49C5.19 7.49 5.95 8.16 5.95 9.67L5.95 9.94L3.68 9.93C1.76 9.93 0.62 10.79 0.62 12.01C0.62 13.27 1.67 14.14 3.01 14.14C4.30 14.14 5.32 13.55 6.08 12.96L6.29 14L6.97 14L6.97 9.67C6.97 7.70 5.88 6.58 3.95 6.58ZM1.65 12.00C1.65 11.19 2.37 10.79 3.70 10.79L5.95 10.79L5.95 12.11C5.19 12.70 4.24 13.22 3.22 13.22C2.37 13.22 1.65 12.78 1.65 12.00ZM12.82 6.58C12.05 6.58 11.19 6.97 10.25 7.76L10.07 6.72L9.32 6.72L9.32 14L10.36 14L10.36 8.75C11.27 7.98 12.01 7.59 12.63 7.59C12.95 7.59 13.23 7.64 13.47 7.73L13.59 6.71C13.38 6.64 13.13 6.58 12.82 6.58ZM20.55 9.30L21.56 9.30C21.45 7.94 20.13 6.58 18.20 6.58C16.04 6.58 14.48 8.20 14.48 10.33C14.48 12.47 16.04 14.14 18.23 14.14C19.96 14.14 21.38 13.03 21.53 11.54L20.52 11.54C20.34 12.57 19.40 13.23 18.20 13.23C16.74 13.23 15.54 12.07 15.54 10.36C15.54 8.69 16.70 7.49 18.23 7.49C19.54 7.49 20.45 8.44 20.55 9.30ZM26.11 6.58C24.39 6.58 23.17 7.56 23.07 9.02L24.07 9.02C24.12 8.18 24.92 7.49 26.07 7.49C27.36 7.49 28.11 8.16 28.11 9.67L28.11 9.94L25.84 9.93C23.93 9.93 22.78 10.79 22.78 12.01C22.78 13.27 23.83 14.14 25.17 14.14C26.46 14.14 27.48 13.55 28.24 12.96L28.45 14L29.13 14L29.13 9.67C29.13 7.70 28.04 6.58 26.11 6.58ZM23.81 12.00C23.81 11.19 24.53 10.79 25.86 10.79L28.11 10.79L28.11 12.11C27.36 12.70 26.40 13.22 25.38 13.22C24.53 13.22 23.81 12.78 23.81 12.00ZM35.76 6.58C34.59 6.58 33.53 6.99 32.41 7.78L32.24 6.72L31.49 6.72L31.49 14L32.52 14L32.52 8.65C33.52 7.98 34.58 7.50 35.49 7.50C36.60 7.50 37.23 8.12 37.23 9.30L37.23 14L38.28 14L38.28 9.25C38.28 7.50 37.32 6.58 35.76 6.58ZM41.20 5.10C41.64 5.10 42 4.73 42 4.27C42 3.85 41.64 3.50 41.20 3.50C40.75 3.50 40.40 3.85 40.40 4.27C40.40 4.73 40.75 5.10 41.20 5.10ZM41.69 6.72L40.64 6.72L40.64 14L41.69 14Z"></path></g><!----><g data-v-423bf9ae="" id="2b46274e-6e85-4ba3-964c-fe38d5df310b" transform="matrix(1.1111222505569458,0,0,1.1111222505569458,-2.4691107273101807,0.4433322250843048)" stroke="none" fill="black"><path d="M48.92 50.541l.822.667.579-.712.557.728.841-.644-.498-.65.785-.234-.302-1.015-.336.1-.006-.733-1.059.009.008 1.024-1.342-.412-.31 1.013.767.235zM40.136 61.357l.823.667-2.196 2.705-.822-.667zM41.598 59.557l2.197-2.704.822.668-2.197 2.704zM45.258 55.052l2.198-2.704.822.668-2.197 2.705zM37.294 66.534l-.822-.668-.844 1.038-1.337.005.004 1.059 1.588-.006-.002-.529.411.333zM56.478 56.793l2.042 2.664-.84.645-2.042-2.665zM59.886 61.231l2.041 2.663-.84.645-2.042-2.664zM53.08 52.353l2.042 2.663-.84.645-2.042-2.664zM56.484 48.366l-2.687.8-.302-1.015 2.688-.8zM66.935 44.158l2.688-.799.302 1.016-2.688.799zM60.961 47.034l-2.688.8-.302-1.017 2.688-.799zM50.17 30.087l1.058-.008.028 3.594-1.059.008zM51.318 42.06l.027 3.594-1.06.008-.026-3.594zM50.243 39.668l-.028-3.594 1.06-.008.027 3.594zM40.818 47.28l-3.36-1.029.31-1.012 3.36 1.029zM43.37 46.955l3.361 1.029-.31 1.013-3.36-1.03zM35.212 45.564l-3.36-1.029.31-1.012 3.36 1.029zM38.695 36.577l1.001.344.39-1.135 1.2.029.026-1.059-.881-.022.268-.839-1.009-.322-.483 1.513zM38.01 41.827l-1.002-.345 1.013-2.943 1.001.345zM34.64 51.636l-1.002-.345 1.014-2.942 1 .345zM36.325 46.732l-1.002-.345 1.014-2.943 1.001.345zM33.957 56.268l.603-.871-.977-.676.386-1.123-1.001-.344-.28.814-.69-.517-.635.849 1.272.952.317-.424-.301.435zM40.642 59.609l2.605 1.805-.603.87-2.606-1.805zM36.298 56.597l2.606 1.805-.603.87-2.606-1.804zM44.98 62.617l2.606 1.804-.603.871-2.606-1.804zM50.636 67.398l1.302-.909-.606-.868-1 .698-1.004-.694-.603.87.685.474-.68.482.613.863 1.293-.916zM53.568 65.354l-.606-.869 2.44-1.702.607.869zM61.084 58.81l2.44-1.703.606.868-2.44 1.703zM59.466 59.943l.606.869-2.441 1.7-.606-.869zM64.492 45.986l.952-.283-.302-1.016-.952.283-.286-.964-1.015.301.286.965-.721.214.302 1.016.721-.214.286.964 1.015-.301zM65.36 48.916l.874 2.945-1.015.301-.874-2.945zM63.32 42.046l-1.015.3-.872-2.946 1.016-.3zM54.03 35.065l3.18.077-.025 1.06-3.18-.079zM46.612 34.885l-.026 1.06-3.18-.078.027-1.06zM48.73 34.939l3.18.077-.026 1.059-3.18-.078zM23.635 86.543l-.612-.864 1.295-.918.613.864zM35.173 77.067l2.713-1.924.612.863-2.713 1.924zM28.84 81.554l-.187.133-1.081-.706-.578.888.731.476-1.598 1.132.613.864 1.938-1.374 1.035.675.579-.887-1.117-.728zM44.214 70.655l2.713-1.923.612.863-2.713 1.924zM39.687 73.862l2.712-1.923.613.864-2.713 1.923zM30.646 80.273l2.712-1.923.612.863-2.713 1.923zM77.154 86.29l-.532-1.497.996-.355.533 1.497zM69.612 61.926l-.998.355-1.09-3.07.998-.354zM73.25 72.158l-.998.354-1.092-3.068.998-.355zM74.8 79.678l.997-.355 1.092 3.069-.998.355zM69.34 64.329l.997-.355 1.09 3.07-.997.355zM66.794 57.169l.998-.354-.527-1.483-.448-1.51-1.015.302.343 1.156-.989.69.606.869.733-.512zM60.913 35.232l-1.583-.039-.025 1.059 1.202.03.342 1.153 1.016-.301-.252-.85.886-.01-.011-1.059zM64.7 35.189l3.323-.036.011 1.06-3.322.035zM90.179 34.916l.011 1.06-3.322.035-.012-1.06zM73.567 35.095l.011 1.06-3.321.036-.012-1.059zM79.117 36.098l-3.323.035-.011-1.059 3.323-.035zM93.982 34.875l.012 1.06-1.59.016-.01-1.059zM49.526 2.766l1.009.322-.483 1.513-1.009-.322zM44.888 17.298l1.008.321-1.038 3.256-1.008-.322zM41.425 28.148l1.008.322-1.04 3.255-1.007-.321zM48.352 6.448l1.008.322-1.038 3.255-1.008-.322zM46.587 15.451l.824-2.58 1.435-.022-.016-1.058-3.026.044.016 1.059.475-.007-.716 2.242zM43.122 26.3l-1.008-.321 1.039-3.256 1.008.322zM6.73 34.623l1.27.953-.634.848-1.272-.953zM25.144 49.74l-2.666-1.998.635-.847 2.666 1.997zM9.78 36.909l2.666 1.996-.636.849-2.666-1.997zM20.7 46.41l-2.666-1.997.635-.848 2.666 1.998zM16.253 43.081l.636-.848-2.667-1.997-.635.848.057.042-.495-.143-.863 2.988 1.017.294.807-2.79zM29.59 53.069l-2.667-1.998.636-.848 2.666 1.998zM21.978 14.278l.894-.184-.177-.855.933-.014-.016-1.059-1.588.023.007.457-.238.049-.424-.123-.442 1.525 1.017.295zM16.606 29.034l.864-2.987 1.017.294-.864 2.988zM16.03 31.027l1.017.295-.865 2.987-1.018-.295zM20.35 16.09l1.018.294-.861 2.988-1.019-.294zM7.544 64.183l-1.017-.293.861-2.988 1.018.293zM10.272 50.94l1.018.295-.864 2.987-1.018-.295zM9.847 56.215l-.864 2.988-1.017-.295.864-2.987zM14.592 36.004l1.017.294-.864 2.987-1.017-.294zM11.863 49.245l-1.018-.294.863-2.988 1.018.294zM18.912 21.07l1.017.294-.866 2.987-1.017-.295zM7.606 67.955l-.004-.94-.881.003.245-.846-1.017-.295-.442 1.526.509.147-.289.444 1.331 1.331.513-.325H7v-.98l.333-.045zM20.654 77.732l-2.719-1.775.58-.887 2.719 1.774zM43.311 92.513l-2.72-1.774.58-.887 2.719 1.774zM38.774 89.557l-2.72-1.773.58-.887 2.718 1.773zM47.836 95.47l-2.719-1.772.578-.887 2.72 1.772zM16.116 74.771l-2.718-1.773.578-.887 2.719 1.773zM34.245 86.603l-2.719-1.774.58-.887 2.717 1.774zM25.178 80.686l-2.719-1.773.579-.887 2.718 1.773zM11.587 71.821l-2.718-1.773.579-.888 2.718 1.774zM67.053 84.705l-.676-.816 2.509-2.077.675.815zM58.693 91.626l-.676-.816 2.51-2.078.675.816zM87.98 67.398l-.675-.815 2.509-2.079.676.816zM54.501 95.085l-.675-.816 2.509-2.078.675.816zM62.875 88.165l-.675-.816 2.511-2.076.675.816zM79.61 74.317l-.676-.816 2.512-2.078.675.817zM75.426 77.782l2.51-2.076-.675-.815-2.349 1.942-.935-2.627-.998.355 1.092 3.068.949-.337zM71.244 81.24l-.675-.816 2.51-2.077.675.816zM83.794 70.86l-.675-.817 2.512-2.075.674.816zM92.94 60.851l-.59.24-.062-.062-.143.145-.186.076.033.08-.448.454.715.703-.772.638.675.816 1.224-1.012-.338-.408.491-.199zM81.891 33.705l-.98.399-1.227-3.016.98-.399zM79.85 28.68l-.98.399-1.229-3.015.98-.399zM90.074 53.816l-.98.4-1.229-3.015.981-.4zM85.983 43.764l-.981.4-1.229-3.017.98-.4zM85.816 46.172l.98-.4 1.229 3.016-.98.399zM89.908 56.224l.98-.4 1.228 3.014-.98.4zM75.753 18.632l-.98.4-1.23-3.016.982-.4zM82.848 36.058l1.803-.019-.011-1.059-3.323.035.012 1.059.521-.006-.121.05 1.228 3.016.98-.4zM77.795 23.657l-.98.399-1.228-3.016.981-.4zM28.656 12.09l.016 1.06-3.027.045-.016-1.058zM43.788 11.867l.016 1.059-3.027.044-.015-1.058zM63.961 11.566l.016 1.059-3.027.043-.015-1.059zM33.698 12.015l.016 1.06-3.026.045-.016-1.059zM53.872 11.715l.016 1.06-3.027.045-.016-1.059zM58.919 11.641l.016 1.06-3.027.044-.016-1.059zM69.005 11.491l.015 1.06-3.026.043-.016-1.06zM38.745 11.941l.015 1.06-3.025.044-.016-1.059zM19.466 66.962h2.966v1.059h-2.966zM14.524 66.981h2.965v1.059h-2.965zM9.582 67.001h2.965v1.059H9.582zM24.409 66.942h2.965v1.059h-2.965zM32.315 67.977l-2.965.012-.004-1.06 2.965-.011zM28.602 41.824l-1.037.214.321 1.555.531-.109 1.197.366.31-1.012-1.188-.364zM22.895 19.443l-.637-3.081 1.037-.214.637 3.08zM26.08 34.847l-.638-3.081 1.037-.215.638 3.081zM24.995 24.364l-1.038.215-.636-3.08 1.038-.215zM27.542 36.686l.636 3.08-1.037.215-.636-3.081zM26.054 29.5l-1.037.214-.635-3.081 1.037-.214zM51.68 24.95l-1.334.863.184.284-.39.003.012 1.588 1.059-.008-.009-1.16 1.053-.681zM65.423 17.319l-2.634 1.704-.575-.89 2.634-1.703zM54.012 24.702l-.574-.89 2.635-1.701.575.89zM61.037 20.163l-2.634 1.704-.575-.889 2.634-1.704zM69.816 14.48l-2.634 1.703-.575-.89 2.634-1.703zM71.571 13.347l.703-.455.452 1.109.981-.398-.6-1.472-.34.139-.148-.229-.009-.605-1.589.024.014.972-.039.026zM74.59 43.616l-1.132-1.115-.372.378-.15-.508-1.523.453.302 1.015 1.223-.363.91.894zM81.887 52.284l-2.414-2.374.742-.755 2.414 2.374zM89.935 60.199l-2.413-2.375.742-.754 2.413 2.374zM77.87 48.325l-2.412-2.375.743-.755 2.413 2.376zM85.912 56.241L83.5 53.867l.743-.755 2.413 2.374zM63.707 68.925l.616-1.464-.488-.206.42-.321-.966-1.261-.841.644.779 1.016-.497 1.181zM56.433 83.45l1.258-2.987.976.41-1.258 2.988zM60.772 75.896l-1.26 2.988-.975-.412 1.259-2.987zM56.57 85.858l-1.259 2.988-.976-.41 1.26-2.99zM52.245 93.412l1.259-2.987.976.41-1.259 2.989zM60.63 73.489l1.26-2.988.977.412-1.26 2.987zM52.375 95.815l-.129-.055-.089-.108-.056.047-.702-.296-.371.88-.799-.521-.578.887 1.33.868.29-.444.337.408 1.224-1.012-.485-.586z"></path><circle cx="6.41" cy="35.047" r="2.928"></circle><circle cx="32.979" cy="55.016" r="4.79"></circle><circle cx="93.05" cy="62.521" r="2.928"></circle><circle cx="93.987" cy="35.409" r="2.926"></circle><circle cx="51.27" cy="97.073" r="2.928"></circle><circle cx="6.015" cy="67.55" r="2.928"></circle><circle cx="50.332" cy="49.641" r="5.511"></circle><circle cx="39.816" cy="35" r="4.79"></circle><circle cx="60.904" cy="35.842" r="4.79"></circle><circle cx="77.649" cy="86.109" r="2.926"></circle><circle cx="50.635" cy="67.21" r="4.789"></circle><circle cx="66.735" cy="55.478" r="4.79"></circle><circle cx="28.249" cy="42.879" r="2.028"></circle><circle cx="50.633" cy="26.257" r="1.929"></circle><circle cx="35.881" cy="67.433" r="2.127"></circle><circle cx="63.833" cy="67.255" r="2.053"></circle><circle cx="50.032" cy="2.927" r="2.927"></circle><circle cx="72.616" cy="12.331" r="2.928"></circle><circle cx="73.085" cy="42.879" r="2.226"></circle><circle cx="23.331" cy="86.109" r="2.927"></circle><circle cx="22.031" cy="12.646" r="2.928"></circle></g><!----></svg>