<?xml version="1.0" encoding="UTF-8" standalone="no"?>
<svg
   data-v-fde0c5aa=""
   viewBox="0 0 220 58.623909"
   class="iconLeft"
   version="1.1"
   id="svg58"
   sodipodi:docname="focused.svg"
   width="220"
   height="58.623909"
   inkscape:export-filename="../focused.png"
   inkscape:export-xdpi="500"
   inkscape:export-ydpi="500"
   inkscape:version="1.2.1 (9c6d41e410, 2022-07-14, custom)"
   xmlns:inkscape="http://www.inkscape.org/namespaces/inkscape"
   xmlns:sodipodi="http://sodipodi.sourceforge.net/DTD/sodipodi-0.dtd"
   xmlns="http://www.w3.org/2000/svg"
   xmlns:svg="http://www.w3.org/2000/svg">
  <sodipodi:namedview
     id="namedview60"
     pagecolor="#ffffff"
     bordercolor="#666666"
     borderopacity="1.0"
     inkscape:showpageshadow="2"
     inkscape:pageopacity="0.0"
     inkscape:pagecheckerboard="0"
     inkscape:deskcolor="#d1d1d1"
     showgrid="false"
     inkscape:zoom="2.2250293"
     inkscape:cx="-31.909692"
     inkscape:cy="24.943491"
     inkscape:window-width="1900"
     inkscape:window-height="1036"
     inkscape:window-x="8"
     inkscape:window-y="32"
     inkscape:window-maximized="1"
     inkscape:current-layer="svg58" />
  <!---->
  <defs
     data-v-fde0c5aa=""
     id="defs2">
    <!---->
  </defs>
  <defs
     data-v-fde0c5aa=""
     id="defs6">
    <!---->
  </defs>
  <g
     data-v-fde0c5aa=""
     id="5f418ebd-7409-4403-abfa-d7ed46f955e9"
     fill="#ECEBE7"
     transform="matrix(3.6731772,0,0,3.6731772,65.72655,-3.0854642)"
     style="fill:#437085;fill-opacity:1">
    <path
       d="M 3.95,6.58 C 2.23,6.58 1.01,7.56 0.91,9.02 H 1.9 C 1.96,8.18 2.76,7.49 3.91,7.49 c 1.28,0 2.04,0.67 2.04,2.18 V 9.94 L 3.68,9.93 c -1.92,0 -3.06,0.86 -3.06,2.08 0,1.26 1.05,2.13 2.39,2.13 1.29,0 2.31,-0.59 3.07,-1.18 L 6.29,14 H 6.97 V 9.67 C 6.97,7.7 5.88,6.58 3.95,6.58 Z M 1.65,12 c 0,-0.81 0.72,-1.21 2.05,-1.21 h 2.25 v 1.32 C 5.19,12.7 4.24,13.22 3.22,13.22 2.37,13.22 1.65,12.78 1.65,12 Z M 12.82,6.58 c -0.77,0 -1.63,0.39 -2.57,1.18 L 10.07,6.72 H 9.32 V 14 h 1.04 V 8.75 c 0.91,-0.77 1.65,-1.16 2.27,-1.16 0.32,0 0.6,0.05 0.84,0.14 L 13.59,6.71 C 13.38,6.64 13.13,6.58 12.82,6.58 Z m 7.73,2.72 h 1.01 C 21.45,7.94 20.13,6.58 18.2,6.58 c -2.16,0 -3.72,1.62 -3.72,3.75 0,2.14 1.56,3.81 3.75,3.81 1.73,0 3.15,-1.11 3.3,-2.6 h -1.01 c -0.18,1.03 -1.12,1.69 -2.32,1.69 -1.46,0 -2.66,-1.16 -2.66,-2.87 0,-1.67 1.16,-2.87 2.69,-2.87 1.31,0 2.22,0.95 2.32,1.81 z m 5.56,-2.72 c -1.72,0 -2.94,0.98 -3.04,2.44 h 1 c 0.05,-0.84 0.85,-1.53 2,-1.53 1.29,0 2.04,0.67 2.04,2.18 V 9.94 L 25.84,9.93 c -1.91,0 -3.06,0.86 -3.06,2.08 0,1.26 1.05,2.13 2.39,2.13 1.29,0 2.31,-0.59 3.07,-1.18 L 28.45,14 h 0.68 V 9.67 C 29.13,7.7 28.04,6.58 26.11,6.58 Z M 23.81,12 c 0,-0.81 0.72,-1.21 2.05,-1.21 h 2.25 v 1.32 c -0.75,0.59 -1.71,1.11 -2.73,1.11 -0.85,0 -1.57,-0.44 -1.57,-1.22 z M 35.76,6.58 c -1.17,0 -2.23,0.41 -3.35,1.2 L 32.24,6.72 H 31.49 V 14 h 1.03 V 8.65 c 1,-0.67 2.06,-1.15 2.97,-1.15 1.11,0 1.74,0.62 1.74,1.8 V 14 h 1.05 V 9.25 C 38.28,7.5 37.32,6.58 35.76,6.58 Z M 41.2,5.1 C 41.64,5.1 42,4.73 42,4.27 42,3.85 41.64,3.5 41.2,3.5 c -0.45,0 -0.8,0.35 -0.8,0.77 0,0.46 0.35,0.83 0.8,0.83 z m 0.49,1.62 H 40.64 V 14 h 1.05 z"
       id="path8"
       style="fill:#437085;fill-opacity:1" />
  </g>
  <defs
     data-v-fde0c5aa=""
     id="defs11">
    <!---->
  </defs>
  <g
     data-v-fde0c5aa=""
     id="00ec6718-1823-4e4b-8225-822334e17225"
     stroke="none"
     fill="#ECEBE7"
     transform="matrix(0.58623326,0,0,0.58623326,-1.809702,-4.2067995e-6)"
     style="fill:#437085;fill-opacity:1">
    <path
       d="m 48.92,50.541 0.822,0.667 0.579,-0.712 0.557,0.728 0.841,-0.644 -0.498,-0.65 0.785,-0.234 -0.302,-1.015 -0.336,0.1 -0.006,-0.733 -1.059,0.009 0.008,1.024 -1.342,-0.412 -0.31,1.013 0.767,0.235 z m -8.784,10.816 0.823,0.667 -2.196,2.705 -0.822,-0.667 z m 1.462,-1.8 2.197,-2.704 0.822,0.668 -2.197,2.704 z m 3.66,-4.505 2.198,-2.704 0.822,0.668 -2.197,2.705 z m -7.964,11.482 -0.822,-0.668 -0.844,1.038 -1.337,0.005 0.004,1.059 1.588,-0.006 -0.002,-0.529 0.411,0.333 z m 19.184,-9.741 2.042,2.664 -0.84,0.645 -2.042,-2.665 z m 3.408,4.438 2.041,2.663 -0.84,0.645 -2.042,-2.664 z m -6.806,-8.878 2.042,2.663 -0.84,0.645 -2.042,-2.664 z m 3.404,-3.987 -2.687,0.8 -0.302,-1.015 2.688,-0.8 z m 10.451,-4.208 2.688,-0.799 0.302,1.016 -2.688,0.799 z m -5.974,2.876 -2.688,0.8 -0.302,-1.017 2.688,-0.799 z M 50.17,30.087 l 1.058,-0.008 0.028,3.594 -1.059,0.008 z m 1.148,11.973 0.027,3.594 -1.06,0.008 -0.026,-3.594 z m -1.075,-2.392 -0.028,-3.594 1.06,-0.008 0.027,3.594 z m -9.425,7.612 -3.36,-1.029 0.31,-1.012 3.36,1.029 z m 2.552,-0.325 3.361,1.029 -0.31,1.013 -3.36,-1.03 z m -8.158,-1.391 -3.36,-1.029 0.31,-1.012 3.36,1.029 z m 3.483,-8.987 1.001,0.344 0.39,-1.135 1.2,0.029 0.026,-1.059 -0.881,-0.022 0.268,-0.839 -1.009,-0.322 -0.483,1.513 z m -0.685,5.25 -1.002,-0.345 1.013,-2.943 1.001,0.345 z m -3.37,9.809 -1.002,-0.345 1.014,-2.942 1,0.345 z m 1.685,-4.904 -1.002,-0.345 1.014,-2.943 1.001,0.345 z m -2.368,9.536 0.603,-0.871 -0.977,-0.676 0.386,-1.123 -1.001,-0.344 -0.28,0.814 -0.69,-0.517 -0.635,0.849 1.272,0.952 0.317,-0.424 -0.301,0.435 z m 6.685,3.341 2.605,1.805 -0.603,0.87 -2.606,-1.805 z m -4.344,-3.012 2.606,1.805 -0.603,0.87 -2.606,-1.804 z m 8.682,6.02 2.606,1.804 -0.603,0.871 -2.606,-1.804 z m 5.656,4.781 1.302,-0.909 -0.606,-0.868 -1,0.698 -1.004,-0.694 -0.603,0.87 0.685,0.474 -0.68,0.482 0.613,0.863 z m 2.932,-2.044 -0.606,-0.869 2.44,-1.702 0.607,0.869 z m 7.516,-6.544 2.44,-1.703 0.606,0.868 -2.44,1.703 z m -1.618,1.133 0.606,0.869 -2.441,1.7 -0.606,-0.869 z m 5.026,-13.957 0.952,-0.283 -0.302,-1.016 -0.952,0.283 -0.286,-0.964 -1.015,0.301 0.286,0.965 -0.721,0.214 0.302,1.016 0.721,-0.214 0.286,0.964 1.015,-0.301 z m 0.868,2.93 0.874,2.945 -1.015,0.301 -0.874,-2.945 z m -2.04,-6.87 -1.015,0.3 -0.872,-2.946 1.016,-0.3 z m -9.29,-6.981 3.18,0.077 -0.025,1.06 -3.18,-0.079 z m -7.418,-0.18 -0.026,1.06 -3.18,-0.078 0.027,-1.06 z m 2.118,0.054 3.18,0.077 -0.026,1.059 -3.18,-0.078 z m -25.095,51.604 -0.612,-0.864 1.295,-0.918 0.613,0.864 z m 11.538,-9.476 2.713,-1.924 0.612,0.863 -2.713,1.924 z m -6.333,4.487 -0.187,0.133 -1.081,-0.706 -0.578,0.888 0.731,0.476 -1.598,1.132 0.613,0.864 1.938,-1.374 1.035,0.675 0.579,-0.887 -1.117,-0.728 z m 15.374,-10.899 2.713,-1.923 0.612,0.863 -2.713,1.924 z m -4.527,3.207 2.712,-1.923 0.613,0.864 -2.713,1.923 z m -9.041,6.411 2.712,-1.923 0.612,0.863 -2.713,1.923 z m 46.508,6.017 -0.532,-1.497 0.996,-0.355 0.533,1.497 z m -7.542,-24.364 -0.998,0.355 -1.09,-3.07 0.998,-0.354 z m 3.638,10.232 -0.998,0.354 -1.092,-3.068 0.998,-0.355 z m 1.55,7.52 0.997,-0.355 1.092,3.069 -0.998,0.355 z m -5.46,-15.349 0.997,-0.355 1.09,3.07 -0.997,0.355 z m -2.546,-7.16 0.998,-0.354 -0.527,-1.483 -0.448,-1.51 -1.015,0.302 0.343,1.156 -0.989,0.69 0.606,0.869 0.733,-0.512 z m -5.881,-21.937 -1.583,-0.039 -0.025,1.059 1.202,0.03 0.342,1.153 1.016,-0.301 -0.252,-0.85 0.886,-0.01 -0.011,-1.059 z m 3.787,-0.043 3.323,-0.036 0.011,1.06 -3.322,0.035 z m 25.479,-0.273 0.011,1.06 -3.322,0.035 -0.012,-1.06 z m -16.612,0.179 0.011,1.06 -3.321,0.036 -0.012,-1.059 z m 5.55,1.003 -3.323,0.035 -0.011,-1.059 3.323,-0.035 z m 14.865,-1.223 0.012,1.06 -1.59,0.016 -0.01,-1.059 z M 49.526,2.766 50.535,3.088 50.052,4.601 49.043,4.279 Z m -4.638,14.532 1.008,0.321 -1.038,3.256 -1.008,-0.322 z m -3.463,10.85 1.008,0.322 -1.04,3.255 -1.007,-0.321 z m 6.927,-21.7 1.008,0.322 -1.038,3.255 -1.008,-0.322 z m -1.765,9.003 0.824,-2.58 1.435,-0.022 -0.016,-1.058 -3.026,0.044 0.016,1.059 0.475,-0.007 -0.716,2.242 z m -3.465,10.849 -1.008,-0.321 1.039,-3.256 1.008,0.322 z M 6.73,34.623 8,35.576 7.366,36.424 6.094,35.471 Z m 18.414,15.117 -2.666,-1.998 0.635,-0.847 2.666,1.997 z M 9.78,36.909 12.446,38.905 11.81,39.754 9.144,37.757 Z m 10.92,9.501 -2.666,-1.997 0.635,-0.848 2.666,1.998 z m -4.447,-3.329 0.636,-0.848 -2.667,-1.997 -0.635,0.848 0.057,0.042 -0.495,-0.143 -0.863,2.988 1.017,0.294 0.807,-2.79 z m 13.337,9.988 -2.667,-1.998 0.636,-0.848 2.666,1.998 z m -7.612,-38.791 0.894,-0.184 -0.177,-0.855 0.933,-0.014 -0.016,-1.059 -1.588,0.023 0.007,0.457 -0.238,0.049 -0.424,-0.123 -0.442,1.525 1.017,0.295 z m -5.372,14.756 0.864,-2.987 1.017,0.294 -0.864,2.988 z m -0.576,1.993 1.017,0.295 -0.865,2.987 -1.018,-0.295 z m 4.32,-14.937 1.018,0.294 -0.861,2.988 -1.019,-0.294 z M 7.544,64.183 6.527,63.89 7.388,60.902 8.406,61.195 Z M 10.272,50.94 11.29,51.235 10.426,54.222 9.408,53.927 Z M 9.847,56.215 8.983,59.203 7.966,58.908 8.83,55.921 Z m 4.745,-20.211 1.017,0.294 -0.864,2.987 -1.017,-0.294 z m -2.729,13.241 -1.018,-0.294 0.863,-2.988 1.018,0.294 z m 7.049,-28.175 1.017,0.294 -0.866,2.987 -1.017,-0.295 z M 7.606,67.955 7.602,67.015 6.721,67.018 6.966,66.172 5.949,65.877 5.507,67.403 6.016,67.55 5.727,67.994 7.058,69.325 7.571,69 H 7 v -0.98 l 0.333,-0.045 z m 13.048,9.777 -2.719,-1.775 0.58,-0.887 2.719,1.774 z m 22.657,14.781 -2.72,-1.774 0.58,-0.887 2.719,1.774 z m -4.537,-2.956 -2.72,-1.773 0.58,-0.887 2.718,1.773 z m 9.062,5.913 -2.719,-1.772 0.578,-0.887 2.72,1.772 z m -31.72,-20.699 -2.718,-1.773 0.578,-0.887 2.719,1.773 z m 18.129,11.832 -2.719,-1.774 0.58,-0.887 2.717,1.774 z m -9.067,-5.917 -2.719,-1.773 0.579,-0.887 2.718,1.773 z M 11.587,71.821 8.869,70.048 9.448,69.16 l 2.718,1.774 z m 55.466,12.884 -0.676,-0.816 2.509,-2.077 0.675,0.815 z m -8.36,6.921 -0.676,-0.816 2.51,-2.078 0.675,0.816 z M 87.98,67.398 87.305,66.583 89.814,64.504 90.49,65.32 Z m -33.479,27.687 -0.675,-0.816 2.509,-2.078 0.675,0.816 z m 8.374,-6.92 -0.675,-0.816 2.511,-2.076 0.675,0.816 z m 16.735,-13.848 -0.676,-0.816 2.512,-2.078 0.675,0.817 z m -4.184,3.465 2.51,-2.076 -0.675,-0.815 -2.349,1.942 -0.935,-2.627 -0.998,0.355 1.092,3.068 0.949,-0.337 z m -4.182,3.458 -0.675,-0.816 2.51,-2.077 0.675,0.816 z m 12.55,-10.38 -0.675,-0.817 2.512,-2.075 0.674,0.816 z m 9.146,-10.009 -0.59,0.24 -0.062,-0.062 -0.143,0.145 -0.186,0.076 0.033,0.08 -0.448,0.454 0.715,0.703 -0.772,0.638 0.675,0.816 1.224,-1.012 -0.338,-0.408 0.491,-0.199 z m -11.049,-27.146 -0.98,0.399 -1.227,-3.016 0.98,-0.399 z m -2.041,-5.025 -0.98,0.399 -1.229,-3.015 0.98,-0.399 z m 10.224,25.136 -0.98,0.4 -1.229,-3.015 0.981,-0.4 z m -4.091,-10.052 -0.981,0.4 -1.229,-3.017 0.98,-0.4 z m -0.167,2.408 0.98,-0.4 1.229,3.016 -0.98,0.399 z m 4.092,10.052 0.98,-0.4 1.228,3.014 -0.98,0.4 z m -14.155,-37.592 -0.98,0.4 -1.23,-3.016 0.982,-0.4 z m 7.095,17.426 1.803,-0.019 -0.011,-1.059 -3.323,0.035 0.012,1.059 0.521,-0.006 -0.121,0.05 1.228,3.016 0.98,-0.4 z m -5.053,-12.401 -0.98,0.399 -1.228,-3.016 0.981,-0.4 z M 28.656,12.09 l 0.016,1.06 -3.027,0.045 -0.016,-1.058 z m 15.132,-0.223 0.016,1.059 -3.027,0.044 -0.015,-1.058 z m 20.173,-0.301 0.016,1.059 -3.027,0.043 -0.015,-1.059 z m -30.263,0.449 0.016,1.06 -3.026,0.045 -0.016,-1.059 z m 20.174,-0.3 0.016,1.06 -3.027,0.045 -0.016,-1.059 z m 5.047,-0.074 0.016,1.06 -3.027,0.044 -0.016,-1.059 z m 10.086,-0.15 0.015,1.06 -3.026,0.043 -0.016,-1.06 z m -30.26,0.45 0.015,1.06 -3.025,0.044 -0.016,-1.059 z M 19.466,66.962 h 2.966 v 1.059 h -2.966 z m -4.942,0.019 h 2.965 v 1.059 h -2.965 z m -4.942,0.02 h 2.965 V 68.06 H 9.582 Z m 14.827,-0.059 h 2.965 v 1.059 h -2.965 z m 7.906,1.035 -2.965,0.012 -0.004,-1.06 2.965,-0.011 z m -3.713,-26.153 -1.037,0.214 0.321,1.555 0.531,-0.109 1.197,0.366 0.31,-1.012 -1.188,-0.364 z m -5.707,-22.381 -0.637,-3.081 1.037,-0.214 0.637,3.08 z m 3.185,15.404 -0.638,-3.081 1.037,-0.215 0.638,3.081 z m -1.085,-10.483 -1.038,0.215 -0.636,-3.08 1.038,-0.215 z m 2.547,12.322 0.636,3.08 -1.037,0.215 -0.636,-3.081 z m -1.488,-7.186 -1.037,0.214 -0.635,-3.081 1.037,-0.214 z m 25.626,-4.55 -1.334,0.863 0.184,0.284 -0.39,0.003 0.012,1.588 1.059,-0.008 -0.009,-1.16 1.053,-0.681 z m 13.743,-7.631 -2.634,1.704 -0.575,-0.89 2.634,-1.703 z m -11.411,7.383 -0.574,-0.89 2.635,-1.701 0.575,0.89 z m 7.025,-4.539 -2.634,1.704 -0.575,-0.889 2.634,-1.704 z m 8.779,-5.683 -2.634,1.703 -0.575,-0.89 2.634,-1.703 z m 1.755,-1.133 0.703,-0.455 0.452,1.109 0.981,-0.398 -0.6,-1.472 -0.34,0.139 -0.148,-0.229 -0.009,-0.605 -1.589,0.024 0.014,0.972 -0.039,0.026 z m 3.019,30.269 -1.132,-1.115 -0.372,0.378 -0.15,-0.508 -1.523,0.453 0.302,1.015 1.223,-0.363 0.91,0.894 z m 7.297,8.668 -2.414,-2.374 0.742,-0.755 2.414,2.374 z m 8.048,7.915 -2.413,-2.375 0.742,-0.754 2.413,2.374 z M 77.87,48.325 75.458,45.95 l 0.743,-0.755 2.413,2.376 z m 8.042,7.916 -2.412,-2.374 0.743,-0.755 2.413,2.374 z m -22.205,12.684 0.616,-1.464 -0.488,-0.206 0.42,-0.321 -0.966,-1.261 -0.841,0.644 0.779,1.016 -0.497,1.181 z m -7.274,14.525 1.258,-2.987 0.976,0.41 -1.258,2.988 z m 4.339,-7.554 -1.26,2.988 -0.975,-0.412 1.259,-2.987 z m -4.202,9.962 -1.259,2.988 -0.976,-0.41 1.26,-2.99 z m -4.325,7.554 1.259,-2.987 0.976,0.41 -1.259,2.989 z m 8.385,-19.923 1.26,-2.988 0.977,0.412 -1.26,2.987 z m -8.255,22.326 -0.129,-0.055 -0.089,-0.108 -0.056,0.047 -0.702,-0.296 -0.371,0.88 -0.799,-0.521 -0.578,0.887 1.33,0.868 0.29,-0.444 0.337,0.408 1.224,-1.012 -0.485,-0.586 z"
       id="path13"
       style="fill:#437085;fill-opacity:1" />
    <circle
       cx="6.4099998"
       cy="35.047001"
       r="2.928"
       id="circle15"
       style="fill:#437085;fill-opacity:1" />
    <circle
       cx="32.979"
       cy="55.015999"
       r="4.79"
       id="circle17"
       style="fill:#437085;fill-opacity:1" />
    <circle
       cx="93.050003"
       cy="62.521"
       r="2.928"
       id="circle19"
       style="fill:#437085;fill-opacity:1" />
    <circle
       cx="93.987"
       cy="35.409"
       r="2.9260001"
       id="circle21"
       style="fill:#437085;fill-opacity:1" />
    <circle
       cx="51.27"
       cy="97.072998"
       r="2.928"
       id="circle23"
       style="fill:#437085;fill-opacity:1" />
    <circle
       cx="6.0149999"
       cy="67.550003"
       r="2.928"
       id="circle25"
       style="fill:#437085;fill-opacity:1" />
    <circle
       cx="50.332001"
       cy="49.640999"
       r="5.5110002"
       id="circle27"
       style="fill:#437085;fill-opacity:1" />
    <circle
       cx="39.816002"
       cy="35"
       r="4.79"
       id="circle29"
       style="fill:#437085;fill-opacity:1" />
    <circle
       cx="60.903999"
       cy="35.841999"
       r="4.79"
       id="circle31"
       style="fill:#437085;fill-opacity:1" />
    <circle
       cx="77.649002"
       cy="86.109001"
       r="2.9260001"
       id="circle33"
       style="fill:#437085;fill-opacity:1" />
    <circle
       cx="50.634998"
       cy="67.209999"
       r="4.789"
       id="circle35"
       style="fill:#437085;fill-opacity:1" />
    <circle
       cx="66.735001"
       cy="55.478001"
       r="4.79"
       id="circle37"
       style="fill:#437085;fill-opacity:1" />
    <circle
       cx="28.249001"
       cy="42.879002"
       r="2.0280001"
       id="circle39"
       style="fill:#437085;fill-opacity:1" />
    <circle
       cx="50.632999"
       cy="26.257"
       r="1.929"
       id="circle41"
       style="fill:#437085;fill-opacity:1" />
    <circle
       cx="35.881001"
       cy="67.432999"
       r="2.1270001"
       id="circle43"
       style="fill:#437085;fill-opacity:1" />
    <circle
       cx="63.833"
       cy="67.254997"
       r="2.053"
       id="circle45"
       style="fill:#437085;fill-opacity:1" />
    <circle
       cx="50.032001"
       cy="2.927"
       r="2.927"
       id="circle47"
       style="fill:#437085;fill-opacity:1" />
    <circle
       cx="72.615997"
       cy="12.331"
       r="2.928"
       id="circle49"
       style="fill:#437085;fill-opacity:1" />
    <circle
       cx="73.084999"
       cy="42.879002"
       r="2.2260001"
       id="circle51"
       style="fill:#437085;fill-opacity:1" />
    <circle
       cx="23.330999"
       cy="86.109001"
       r="2.927"
       id="circle53"
       style="fill:#437085;fill-opacity:1" />
    <circle
       cx="22.031"
       cy="12.646"
       r="2.928"
       id="circle55"
       style="fill:#437085;fill-opacity:1" />
  </g>
  <!---->
</svg>
