<svg data-v-423bf9ae="" xmlns="http://www.w3.org/2000/svg" viewBox="0 0 233.34586315544826 60" class="font"><!----><!----><!----><g data-v-423bf9ae="" id="19d7f11a-e3e7-4f1c-b46f-a4a85d6825fe" fill="black" transform="matrix(5.639097690582275,0,0,5.639097690582275,-3.4962515830993652,-19.736839294433594)"><path d="M3.95 6.58C2.23 6.58 1.01 7.56 0.91 9.02L1.90 9.02C1.96 8.18 2.76 7.49 3.91 7.49C5.19 7.49 5.95 8.16 5.95 9.67L5.95 9.94L3.68 9.93C1.76 9.93 0.62 10.79 0.62 12.01C0.62 13.27 1.67 14.14 3.01 14.14C4.30 14.14 5.32 13.55 6.08 12.96L6.29 14L6.97 14L6.97 9.67C6.97 7.70 5.88 6.58 3.95 6.58ZM1.65 12.00C1.65 11.19 2.37 10.79 3.70 10.79L5.95 10.79L5.95 12.11C5.19 12.70 4.24 13.22 3.22 13.22C2.37 13.22 1.65 12.78 1.65 12.00ZM12.82 6.58C12.05 6.58 11.19 6.97 10.25 7.76L10.07 6.72L9.32 6.72L9.32 14L10.36 14L10.36 8.75C11.27 7.98 12.01 7.59 12.63 7.59C12.95 7.59 13.23 7.64 13.47 7.73L13.59 6.71C13.38 6.64 13.13 6.58 12.82 6.58ZM20.55 9.30L21.56 9.30C21.45 7.94 20.13 6.58 18.20 6.58C16.04 6.58 14.48 8.20 14.48 10.33C14.48 12.47 16.04 14.14 18.23 14.14C19.96 14.14 21.38 13.03 21.53 11.54L20.52 11.54C20.34 12.57 19.40 13.23 18.20 13.23C16.74 13.23 15.54 12.07 15.54 10.36C15.54 8.69 16.70 7.49 18.23 7.49C19.54 7.49 20.45 8.44 20.55 9.30ZM26.11 6.58C24.39 6.58 23.17 7.56 23.07 9.02L24.07 9.02C24.12 8.18 24.92 7.49 26.07 7.49C27.36 7.49 28.11 8.16 28.11 9.67L28.11 9.94L25.84 9.93C23.93 9.93 22.78 10.79 22.78 12.01C22.78 13.27 23.83 14.14 25.17 14.14C26.46 14.14 27.48 13.55 28.24 12.96L28.45 14L29.13 14L29.13 9.67C29.13 7.70 28.04 6.58 26.11 6.58ZM23.81 12.00C23.81 11.19 24.53 10.79 25.86 10.79L28.11 10.79L28.11 12.11C27.36 12.70 26.40 13.22 25.38 13.22C24.53 13.22 23.81 12.78 23.81 12.00ZM35.76 6.58C34.59 6.58 33.53 6.99 32.41 7.78L32.24 6.72L31.49 6.72L31.49 14L32.52 14L32.52 8.65C33.52 7.98 34.58 7.50 35.49 7.50C36.60 7.50 37.23 8.12 37.23 9.30L37.23 14L38.28 14L38.28 9.25C38.28 7.50 37.32 6.58 35.76 6.58ZM41.20 5.10C41.64 5.10 42 4.73 42 4.27C42 3.85 41.64 3.50 41.20 3.50C40.75 3.50 40.40 3.85 40.40 4.27C40.40 4.73 40.75 5.10 41.20 5.10ZM41.69 6.72L40.64 6.72L40.64 14L41.69 14Z"></path></g><!----><!----></svg>